HIERARCHY
ROOT joint_Root
{
	OFFSET 0.0 0.0 0.0
	CHANNELS 6 Xposition Yposition Zposition Zrotation Xrotation Yrotation 
	JOINT Hips
	{
		OFFSET -0.726466 93.3139 -2.00062
		CHANNELS 6 Xposition Yposition Zposition Zrotation Xrotation Yrotation 
		JOINT Spine
		{
			OFFSET 15.7357 0.0 0.0
			CHANNELS 6 Xposition Yposition Zposition Zrotation Xrotation Yrotation 
			JOINT Chest
			{
				OFFSET 8.98455 -0.406207 0.0
				CHANNELS 6 Xposition Yposition Zposition Zrotation Xrotation Yrotation 
				JOINT Neck
				{
					OFFSET 16.3773 0.0 0.0
					CHANNELS 6 Xposition Yposition Zposition Zrotation Xrotation Yrotation 
					JOINT Head
					{
						OFFSET 6.45672 0.0 0.0
						CHANNELS 6 Xposition Yposition Zposition Zrotation Xrotation Yrotation 
						End Site
						{
							OFFSET 0.0 0.0 0.0
						}
					}
				}
				JOINT Shoulder_L
				{
					OFFSET 12.9942 -0.242716 4.98039
					CHANNELS 6 Xposition Yposition Zposition Zrotation Xrotation Yrotation 
					JOINT UpperArm_L
					{
						OFFSET 5.34809 0.0 0.0
						CHANNELS 6 Xposition Yposition Zposition Zrotation Xrotation Yrotation 
						JOINT LowerArm_L
						{
							OFFSET 24.3286 1.87007e-05 0.0
							CHANNELS 6 Xposition Yposition Zposition Zrotation Xrotation Yrotation 
							JOINT Hand_L
							{
								OFFSET 22.2916 0.0 0.0
								CHANNELS 6 Xposition Yposition Zposition Zrotation Xrotation Yrotation 
								End Site
								{
									OFFSET 0.0 0.0 0.0
								}
							}
						}
					}
				}
				JOINT Shoulder_R
				{
					OFFSET 12.9945 -0.242716 -4.98039
					CHANNELS 6 Xposition Yposition Zposition Zrotation Xrotation Yrotation 
					JOINT UpperArm_R
					{
						OFFSET -5.34813 0.0 0.0
						CHANNELS 6 Xposition Yposition Zposition Zrotation Xrotation Yrotation 
						JOINT LowerArm_R
						{
							OFFSET -24.3289 0.000322201 0.0
							CHANNELS 6 Xposition Yposition Zposition Zrotation Xrotation Yrotation 
							JOINT Hand_R
							{
								OFFSET -22.2915 -0.000108084 0.0
								CHANNELS 6 Xposition Yposition Zposition Zrotation Xrotation Yrotation 
								End Site
								{
									OFFSET 0.0 0.0 0.0
								}
							}
						}
					}
				}
			}
		}
		JOINT UpperLeg_L
		{
			OFFSET -2.19248 -6.46944 0.0
			CHANNELS 6 Xposition Yposition Zposition Zrotation Xrotation Yrotation 
			JOINT LowerLeg_L
			{
				OFFSET 39.0811 0.0 -1.23785e-05
				CHANNELS 6 Xposition Yposition Zposition Zrotation Xrotation Yrotation 
				JOINT Foot_L
				{
					OFFSET 40.9854 0.0 -1.26872e-05
					CHANNELS 6 Xposition Yposition Zposition Zrotation Xrotation Yrotation 
					JOINT Toes_L
					{
						OFFSET 11.7543 0.0 0.0
						CHANNELS 6 Xposition Yposition Zposition Zrotation Xrotation Yrotation 
						End Site
						{
							OFFSET 0.0 0.0 0.0
						}
					}
				}
			}
		}
		JOINT UpperLeg_R
		{
			OFFSET -2.19251 6.46944 0.0
			CHANNELS 6 Xposition Yposition Zposition Zrotation Xrotation Yrotation 
			JOINT LowerLeg_R
			{
				OFFSET -39.0811 -0.00228153 -0.0401928
				CHANNELS 6 Xposition Yposition Zposition Zrotation Xrotation Yrotation 
				JOINT Foot_R
				{
					OFFSET -40.9854 0.0 0.0
					CHANNELS 6 Xposition Yposition Zposition Zrotation Xrotation Yrotation 
					JOINT Toes_R
					{
						OFFSET -11.7543 0.0 0.0
						CHANNELS 6 Xposition Yposition Zposition Zrotation Xrotation Yrotation 
						End Site
						{
							OFFSET 0.0 0.0 0.0
						}
					}
				}
			}
		}
	}
}
MOTION
Frames:	5
Frame Time:	0.0333333
0.000000 0.000000 0.000000 0.000000 0.000000 -0.000000 -2.729880 91.113500 -536.934000 85.965900 3.403990 0.437662 15.735700 0.000005 -0.000001 74.934000 82.923700 -72.298200 8.984550 -0.406207 -0.000000 6.000850 -3.709490 5.461800 16.377300 -0.000001 -0.000001 0.587776 -3.330340 0.180243 6.456720 -0.000001 -0.000000 2.074720 -0.961833 0.254828 12.994200 -0.242716 4.980390 -88.991600 -3.295780 -72.977100 5.348090 -0.000007 -0.000001 -68.179600 33.459100 -14.086600 24.328600 0.000019 0.000005 4.448300 3.567410 -51.345400 22.291600 -0.000001 0.000005 7.612670 5.565170 -9.443490 12.994500 -0.242716 -4.980390 88.514900 4.019050 -69.700500 -5.348130 -0.000001 -0.000004 -69.341500 13.114100 0.537613 -24.328900 0.000322 -0.000009 0.288859 11.221100 -1.489410 -22.291500 -0.000108 -0.000004 14.666300 5.233830 1.856240 -2.192480 -6.469440 -0.000000 -171.923000 -5.514770 -7.629550 39.081100 -0.000007 -0.000012 -0.014866 0.014732 45.264900 40.985400 -0.000006 -0.000013 6.518580 -21.091500 -60.109200 11.754300 -0.000000 0.000003 -0.006714 -0.077199 -19.719300 -2.192510 6.469440 -0.000001 -173.090000 16.747900 168.645000 -39.081100 -0.002282 -0.040193 0.028062 -0.045397 28.605700 -40.985400 0.000008 0.000006 5.887580 -5.758040 -68.369900 -11.754300 -0.000006 -0.000006 -0.019662 -0.165409 -23.330400
0.000000 0.000000 0.000000 0.000000 0.000000 -0.000000 -3.056160 91.328200 -535.605000 86.525500 1.997900 0.595150 15.735700 0.000005 -0.000001 78.738500 82.969300 -76.467000 8.984550 -0.406207 -0.000000 6.089320 -2.771720 4.686090 16.377300 -0.000001 -0.000001 0.605370 -3.031480 0.094062 6.456720 -0.000001 -0.000000 2.076510 -1.245000 0.148399 12.994200 -0.242716 4.980390 -88.905900 -3.504010 -72.647000 5.348090 -0.000007 -0.000001 -71.019500 33.553000 -11.760500 24.328600 0.000019 0.000005 4.345790 3.667530 -49.911200 22.291600 -0.000001 0.000005 7.232050 5.550550 -8.731950 12.994500 -0.242716 -4.980390 88.477600 4.266740 -70.342600 -5.348130 -0.000001 -0.000004 -71.647400 17.455100 -1.423170 -24.328900 0.000322 -0.000009 0.634627 10.308600 -3.547880 -22.291500 -0.000108 -0.000004 13.358500 5.247390 1.501420 -2.192480 -6.469440 -0.000000 -172.441000 -4.759920 -11.307200 39.081100 -0.000007 -0.000012 -0.036892 0.029138 51.700900 40.985400 -0.000006 -0.000013 9.046080 -18.855800 -58.393500 11.754300 -0.000000 0.000003 -0.004165 -0.053150 -18.738900 -2.192510 6.469440 -0.000001 -173.732000 15.456700 170.886000 -39.081100 -0.002282 -0.040193 0.026161 -0.045212 26.814700 -40.985400 0.000008 0.000006 5.763440 -5.826340 -68.911800 -11.754300 -0.000006 -0.000006 -0.020809 -0.171727 -23.590700
0.000000 0.000000 0.000000 0.000000 0.000000 -0.000000 -3.281110 91.568900 -534.350000 87.228500 0.537654 0.585850 15.735700 0.000005 -0.000001 81.971400 82.949000 -80.170200 8.984550 -0.406207 -0.000000 6.234460 -1.988030 3.707010 16.377300 -0.000001 -0.000001 0.400127 -2.469620 0.132844 6.456720 -0.000001 -0.000000 1.937410 -1.479600 0.017779 12.994200 -0.242716 4.980390 -88.934200 -3.297510 -72.077300 5.348090 -0.000007 -0.000001 -72.637300 33.246500 -9.471100 24.328600 0.000019 0.000005 3.307880 3.010620 -47.737200 22.291600 -0.000001 0.000005 7.306210 5.546970 -8.563810 12.994500 -0.242716 -4.980390 88.316900 4.979890 -71.298600 -5.348130 -0.000001 -0.000004 -72.650500 22.870800 -4.212030 -24.328900 0.000322 -0.000009 0.982047 8.642340 -6.514980 -22.291500 -0.000108 -0.000004 12.136700 5.293180 0.262489 -2.192480 -6.469440 -0.000000 -173.007000 -3.939060 -14.557200 39.081100 -0.000007 -0.000012 -0.023655 0.016450 55.192200 40.985400 -0.000006 -0.000013 7.572570 -14.306700 -61.007700 11.754300 -0.000000 0.000003 -0.004792 -0.059450 -18.995500 -2.192510 6.469440 -0.000001 -174.526000 14.069200 172.750000 -39.081100 -0.002282 -0.040193 0.023725 -0.043508 25.134800 -40.985400 0.000008 0.000006 5.773610 -5.767580 -68.969700 -11.754300 -0.000006 -0.000006 -0.023353 -0.185202 -24.146700
0.000000 0.000000 0.000000 0.000000 0.000000 -0.000000 -3.313950 91.805600 -533.009000 88.063600 -0.923599 0.687545 15.735700 0.000005 -0.000001 85.712400 82.917000 -84.377400 8.984550 -0.406207 -0.000000 6.375140 -1.072150 2.726750 16.377300 -0.000001 -0.000001 0.295119 -1.997480 -0.006652 6.456720 -0.000001 -0.000000 1.786310 -1.759510 -0.168630 12.994200 -0.242716 4.980390 -88.969800 -3.107590 -71.648000 5.348090 -0.000007 -0.000001 -73.828100 32.797200 -7.186420 24.328600 0.000019 0.000005 2.681340 2.723040 -44.589500 22.291600 -0.000001 0.000005 7.136640 5.545660 -8.503030 12.994500 -0.242716 -4.980390 88.279200 5.352730 -72.148700 -5.348130 -0.000001 -0.000004 -72.382200 29.266700 -7.687010 -24.328900 0.000322 -0.000009 1.471610 7.884140 -10.615500 -22.291500 -0.000108 -0.000004 11.853300 5.303900 -0.037413 -2.192480 -6.469440 -0.000000 -173.786000 -3.234200 -17.197000 39.081100 -0.000007 -0.000012 -0.004421 0.003042 55.509500 40.985400 -0.000006 -0.000013 4.454950 -11.509700 -63.056600 11.754300 -0.000000 0.000003 -0.002110 -0.030095 -17.800500 -2.192510 6.469440 -0.000001 -175.840000 14.493600 174.786000 -39.081100 -0.002282 -0.040193 0.017684 -0.033257 23.366900 -40.985400 0.000008 0.000006 5.785660 -4.024270 -68.977200 -11.754300 -0.000006 -0.000006 -0.021663 -0.176332 -23.780600
0.000000 0.000000 0.000000 0.000000 0.000000 -0.000000 -3.288670 91.971700 -531.731000 88.653400 -2.280450 0.826255 15.735700 0.000005 -0.000001 89.608200 82.843100 -88.599300 8.984550 -0.406207 -0.000000 6.549200 -0.108294 2.021610 16.377300 -0.000001 -0.000001 0.256252 -1.675320 -0.120358 6.456720 -0.000001 -0.000000 1.635320 -2.011400 -0.666513 12.994200 -0.242716 4.980390 -88.923100 -3.156810 -71.152400 5.348090 -0.000007 -0.000001 -74.878000 32.152000 -5.307790 24.328600 0.000019 0.000005 2.559870 3.022720 -40.292400 22.291600 -0.000001 0.000005 6.656630 5.536070 -8.064600 12.994500 -0.242716 -4.980390 88.418100 5.185790 -73.010200 -5.348130 -0.000001 -0.000004 -70.907000 34.578700 -12.224300 -24.328900 0.000322 -0.000009 2.002570 7.549460 -14.910200 -22.291500 -0.000108 -0.000004 11.747500 5.334230 -0.909875 -2.192480 -6.469440 -0.000000 -174.318000 -2.950160 -19.354800 39.081100 -0.000007 -0.000012 -0.001757 0.001332 52.916500 40.985400 -0.000006 -0.000013 4.814240 -11.088700 -63.066000 11.754300 -0.000000 0.000003 -0.004214 -0.053650 -18.759200 -2.192510 6.469440 -0.000001 -176.948000 14.350500 176.555000 -39.081100 -0.002282 -0.040193 0.010385 -0.017506 21.984700 -40.985400 0.000008 0.000006 4.970020 -2.389310 -68.890800 -11.754300 -0.000006 -0.000006 -0.021199 -0.173841 -23.677900
